<svg xmlns="http://www.w3.org/2000/svg" xmlns:xlink="http://www.w3.org/1999/xlink" viewBox="0,0,256,256" width="1024px" height="1024px" fill-rule="nonzero"><defs><linearGradient x1="12.964" y1="6.045" x2="42.076" y2="53.409" gradientUnits="userSpaceOnUse" id="color-1"><stop offset="0" stop-color="#ffee06"></stop><stop offset="1" stop-color="#ffee06"></stop></linearGradient></defs><g fill="none" fill-rule="nonzero" stroke="none" stroke-width="1" stroke-linecap="butt" stroke-linejoin="miter" stroke-miterlimit="10" stroke-dasharray="" stroke-dashoffset="0" font-family="none" font-weight="none" font-size="none" text-anchor="none" style="mix-blend-mode: normal"><g transform="scale(5.33333,5.33333)"><path d="M35,5h-22l-11,19l11,19h22l11,-19z" fill="url(#color-1)"></path><path d="M22.882,36.758c-0.104,0 -0.207,-0.016 -0.306,-0.048l-4.761,-1.515c-0.254,-0.081 -0.462,-0.256 -0.585,-0.493c-0.121,-0.236 -0.145,-0.513 -0.065,-0.763l7,-22c0.132,-0.417 0.515,-0.697 0.953,-0.697c0.104,0 0.207,0.016 0.306,0.048l4.761,1.515c0.254,0.081 0.462,0.256 0.585,0.493c0.121,0.236 0.145,0.513 0.065,0.763l-7,22c-0.132,0.417 -0.515,0.697 -0.953,0.697zM32,33.88c-0.136,0 -0.268,-0.027 -0.392,-0.08c-0.368,-0.155 -0.608,-0.517 -0.608,-0.92v-5.58c0,-0.269 0.11,-0.53 0.303,-0.717l2.662,-2.584l-2.662,-2.592c-0.193,-0.188 -0.303,-0.449 -0.303,-0.717v-5.59c0,-0.403 0.24,-0.765 0.611,-0.921c0.121,-0.052 0.253,-0.079 0.389,-0.079c0.263,0 0.512,0.101 0.698,0.284l9.139,8.899c0.192,0.188 0.303,0.449 0.303,0.717c0,0.269 -0.11,0.53 -0.304,0.717l-9.139,8.879c-0.188,0.183 -0.435,0.284 -0.697,0.284zM16,33.88c-0.262,0 -0.509,-0.101 -0.696,-0.283l-9.141,-8.88c-0.192,-0.187 -0.303,-0.448 -0.303,-0.717c0,-0.268 0.11,-0.53 0.303,-0.717l9.14,-8.9c0.185,-0.182 0.434,-0.283 0.697,-0.283c0.136,0 0.268,0.027 0.392,0.08c0.368,0.155 0.608,0.517 0.608,0.92v5.59c0,0.268 -0.11,0.529 -0.303,0.716l-2.662,2.593l2.662,2.583c0.193,0.188 0.303,0.449 0.303,0.718v5.58c0,0.403 -0.24,0.765 -0.611,0.921c-0.121,0.052 -0.253,0.079 -0.389,0.079z" fill="#000000" opacity="0.05"></path><path d="M22.882,36.258c-0.05,0 -0.102,-0.007 -0.151,-0.023l-4.764,-1.516c-0.127,-0.041 -0.231,-0.129 -0.293,-0.247c-0.061,-0.118 -0.072,-0.255 -0.032,-0.381l7,-22c0.067,-0.213 0.265,-0.349 0.477,-0.349c0.05,0 0.102,0.007 0.151,0.023l4.764,1.516c0.127,0.041 0.231,0.129 0.293,0.247c0.061,0.118 0.072,0.255 0.032,0.381l-7,22c-0.068,0.213 -0.265,0.349 -0.477,0.349zM32,33.38c-0.065,0 -0.132,-0.013 -0.194,-0.04c-0.186,-0.078 -0.306,-0.26 -0.306,-0.46v-5.58c0,-0.135 0.055,-0.265 0.151,-0.359l3.032,-2.941l-3.031,-2.951c-0.097,-0.094 -0.151,-0.224 -0.151,-0.358v-5.591c0,-0.201 0.12,-0.382 0.306,-0.46c0.062,-0.027 0.129,-0.04 0.194,-0.04c0.128,0 0.254,0.049 0.349,0.142l9.14,8.9c0.097,0.094 0.151,0.224 0.151,0.359c0,0.135 -0.055,0.264 -0.151,0.358l-9.14,8.88c-0.097,0.092 -0.222,0.141 -0.35,0.141zM16,33.38c-0.128,0 -0.253,-0.049 -0.349,-0.142l-9.14,-8.88c-0.096,-0.093 -0.151,-0.223 -0.151,-0.358c0,-0.135 0.055,-0.265 0.151,-0.359l9.14,-8.9c0.095,-0.092 0.221,-0.141 0.349,-0.141c0.065,0 0.132,0.013 0.194,0.04c0.186,0.078 0.306,0.259 0.306,0.46v5.59c0,0.135 -0.055,0.264 -0.151,0.358l-3.032,2.952l3.031,2.941c0.097,0.094 0.151,0.224 0.151,0.359v5.58c0,0.201 -0.12,0.382 -0.306,0.46c-0.061,0.027 -0.128,0.04 -0.193,0.04z" fill="#000000" opacity="0.07"></path><path d="M22.882,35.758l-4.764,-1.516l7,-22l4.764,1.516zM16,15.1l-9.14,8.9l9.14,8.88v-5.58l-3.4,-3.3l3.4,-3.31zM32,20.69l3.4,3.31l-3.4,3.3v5.58l9.14,-8.88l-9.14,-8.9z" fill="#ffffff"></path></g></g></svg>